PathFileType	4	(X/Y/Z)	/Users/niels/Desktop/University/Third Semester/Perception and Action/Exam/Gymnastics Motion Tracking/Code for Gym Tracking/Analyzed Data/Webcam_Backflip/id5_5_baseline_Sports2D/id5_5_baseline_Sports2D_px_person00.trc
DataRate	CameraRate	NumFrames	NumMarkers	Units	OrigDataRate	OrigDataStartFrame	OrigNumFrames
29.81132075471698	29.81132075471698	8	22	m	29.81132075471698	99	159
Frame#	Time	Hip			RHip			RKnee			RAnkle			RBigToe			RSmallToe			RHeel			LHip			LKnee			LAnkle			LBigToe			LSmallToe			LHeel			Neck			Head			Nose			RShoulder			RElbow			RWrist			LShoulder			LElbow			LWrist		
		X1	Y1	Z1	X2	Y2	Z2	X3	Y3	Z3	X4	Y4	Z4	X5	Y5	Z5	X6	Y6	Z6	X7	Y7	Z7	X8	Y8	Z8	X9	Y9	Z9	X10	Y10	Z10	X11	Y11	Z11	X12	Y12	Z12	X13	Y13	Z13	X14	Y14	Z14	X15	Y15	Z15	X16	Y16	Z16	X17	Y17	Z17	X18	Y18	Z18	X19	Y19	Z19	X20	Y20	Z20	X21	Y21	Z21	X22	Y22	Z22
99	3.320886075949367	0.7579112801897108	-0.5906789366880182	0.0	0.7516671898130488	-0.5867338353990158	0.0	0.7424575463920549	-0.6904318440225493	0.0	0.7119911137402924	-0.790114465990639	0.0	0.7423923108409011	-0.8109654599923044	0.0	0.7310090620780152	-0.8122953699677615	0.0	0.6993998469147321	-0.8043726319640433	0.0	0.7659922712286311	-0.5880316551920534	0.0	0.7639713643871534	-0.6905718177168504	0.0	0.7453868470470484	-0.785434667107445	0.0	0.7718060392252399	-0.80795556412587	0.0	0.7727085481710361	-0.8036380674242561	0.0	0.7400811638233247	-0.7995401617140633	0.0	0.7699433329689761	-0.4523525716030775	0.0	0.7903260681743381	-0.3900079043653104	0.0	0.804073163636189	-0.42419860881435967	0.0	0.7604452368779138	-0.4712935232004166	0.0	0.7576984251439203	-0.5394465347296208	0.0	0.7771450274780074	-0.5987003639171282	0.0	0.7710112494072002	-0.4709080762850045	0.0	0.7694331473512378	-0.5367894736820913	0.0	0.7802716413307296	-0.5916053237764738	0.0
100	3.354430379746835	0.7603907713466301	-0.5971295534446873	0.0	0.7535905821793863	-0.5931153933979518	0.0	0.7430017330656326	-0.6965414370062597	0.0	0.711213114992298	-0.7957262908994939	0.0	0.7411316424131483	-0.8161702873465404	0.0	0.7298869787149758	-0.8174657841567939	0.0	0.6984242791335412	-0.8097418742944741	0.0	0.7684955011076031	-0.5945959565032947	0.0	0.7654507695217527	-0.6968054325456181	0.0	0.7451873265159271	-0.7911596180016831	0.0	0.7722877403650736	-0.8129219055231793	0.0	0.7731600580995927	-0.8086175808285715	0.0	0.7398742197945432	-0.8051118601156767	0.0	0.7714503628369602	-0.45915695468612033	0.0	0.7930264446742293	-0.3971877498638103	0.0	0.8061729956579822	-0.4316005364302852	0.0	0.7612971025285875	-0.47767802757468586	0.0	0.7524826862494145	-0.5447682267575128	0.0	0.7644067919149069	-0.6050925744921306	0.0	0.7728873373146158	-0.4780052890336936	0.0	0.7682491963726038	-0.5434420341340043	0.0	0.7771607404756264	-0.5977604540618742	0.0
101	3.3879746835443036	0.7630898472033277	-0.6003012109342075	0.0	0.7559341591080959	-0.5963702767083707	0.0	0.7435363035994744	-0.6997057635211426	0.0	0.7106563159715807	-0.7984697865396596	0.0	0.7403870490883458	-0.8190815477476623	0.0	0.7290516901370507	-0.820421711592905	0.0	0.6975946533733652	-0.8121724725940589	0.0	0.7709187128587459	-0.5979232583988386	0.0	0.766969646337179	-0.7001737593766345	0.0	0.7451112766854379	-0.7941030738882027	0.0	0.7725532187269648	-0.815246180925087	0.0	0.7734400355942358	-0.8110750877699711	0.0	0.7396396571815449	-0.8078132971807164	0.0	0.7729279617322934	-0.4628088917727919	0.0	0.7957851663100476	-0.40119372829048566	0.0	0.8081540001020312	-0.43605354894772874	0.0	0.7618647770055522	-0.48086683921252293	0.0	0.7478681240277905	-0.5467494782913759	0.0	0.752602545308415	-0.6076874947082279	0.0	0.7747040458722457	-0.48206356150882534	0.0	0.7677314863175181	-0.5470020570396538	0.0	0.7755216866005018	-0.6002158268191171	0.0
102	3.421518987341772	0.7657352382547017	-0.6000044462360241	0.0	0.7583759001944487	-0.5962986147081178	0.0	0.7441135004092736	-0.6996289652496759	0.0	0.7102973356494071	-0.798020894903259	0.0	0.7400728314594734	-0.8192883126849654	0.0	0.7285028803285716	-0.8207368068485497	0.0	0.6969172034604386	-0.8113987466378489	0.0	0.7731544441054445	-0.5978249359256433	0.0	0.7684738924037705	-0.7003720189248052	0.0	0.7452200871737962	-0.7938883585127017	0.0	0.7723722094421202	-0.8146881217880724	0.0	0.7733610637593327	-0.8107671638817991	0.0	0.7394144123460258	-0.8073283994964779	0.0	0.7743447391618374	-0.4629220097259878	0.0	0.798750418658845	-0.40187132800741093	0.0	0.8099958051143393	-0.4371676177156077	0.0	0.7621356773970988	-0.4805373334583038	0.0	0.744218306970196	-0.5454671854977473	0.0	0.7427707067584777	-0.6065325151777352	0.0	0.7763770842924893	-0.4826518807797261	0.0	0.7677032629555144	-0.547129155797716	0.0	0.7747324972279195	-0.5990398533808177	0.0
103	3.4550632911392403	0.7680231663986207	-0.5963912379310758	0.0	0.76056683713933	-0.5930761012990153	0.0	0.7449199886595165	-0.6963168176497413	0.0	0.7101524586699395	-0.7944520705540135	0.0	0.7401430836111589	-0.8166355402280832	0.0	0.7282618733809681	-0.8182242085379065	0.0	0.6964101367461715	-0.8075681952315749	0.0	0.7751217495219409	-0.5945266345752203	0.0	0.7699267142799106	-0.6973686907090509	0.0	0.7455175616529309	-0.7904879264333361	0.0	0.7717750320033051	-0.8113412624426364	0.0	0.7729315402012772	-0.8077418897317269	0.0	0.7391993752572307	-0.8037412435381426	0.0	0.7756933499107499	-0.4596262909970181	0.0	0.8020845552674043	-0.3994043176054491	0.0	0.8117357824980291	-0.4350058553145637	0.0	0.7622036133708405	-0.47672463444482244	0.0	0.7416900718836272	-0.5411560495737534	0.0	0.7357110024309849	-0.6019901987025978	0.0	0.7778956825715676	-0.47975608085745003	0.0	0.7679438332223391	-0.5437895392770846	0.0	0.7743084903814446	-0.5945672729597326	0.0
104	3.488607594936709	0.7698058030716602	-0.5899298328063631	0.0	0.7623363622525815	-0.5871944678264226	0.0	0.7461935421979781	-0.6901322428614045	0.0	0.7103104325605957	-0.788168996275838	0.0	0.7406077699413931	-0.8113420311452368	0.0	0.728340353583307	-0.8130526873473183	0.0	0.696160044329467	-0.8011894049488064	0.0	0.776792203716971	-0.5885837405774356	0.0	0.7712545211877554	-0.6914734075248102	0.0	0.7459439815610353	-0.7842503613772402	0.0	0.7710120827304137	-0.8056459752114256	0.0	0.7723450944644392	-0.802348109150782	0.0	0.7389469592363231	-0.7975012670571607	0.0	0.777033220063225	-0.45348768882988183	0.0	0.8058727318981453	-0.39430972523444574	0.0	0.813453033941585	-0.43007401975620846	0.0	0.7622727486586214	-0.4698888840621004	0.0	0.7402895154936796	-0.5342158532281193	0.0	0.7317765708861267	-0.5946571819156182	0.0	0.7793256618121339	-0.47382695317625473	0.0	0.7683612461503576	-0.5373642069143693	0.0	0.7741084356046204	-0.5874053371040246	0.0
105	3.522151898734177	0.7711393186105946	-0.5813716592915045	0.0	0.763694422319587	-0.5793433431669098	0.0	0.7482222351819189	-0.6817790350459475	0.0	0.7109504552839453	-0.7798570006576033	0.0	0.7415661101693638	-0.8040864020969631	0.0	0.7288532888891981	-0.8058523125483733	0.0	0.6963882837521862	-0.79299431175784	0.0	0.7781762092066473	-0.5807307687675101	0.0	0.7723696326524713	-0.6833378531170062	0.0	0.7463900334285638	-0.7759070012684328	0.0	0.7703746116329948	-0.7983221306517868	0.0	0.7717889226248181	-0.7951918015969796	0.0	0.7385681738264321	-0.7893462743764762	0.0	0.7784722311379932	-0.44535603700003956	0.0	0.8100889444968766	-0.38742913830473347	0.0	0.8152622299729201	-0.42324449168552325	0.0	0.7625513635608279	-0.46085033821242766	0.0	0.7399575598148137	-0.525244751049656	0.0	0.7308678425346866	-0.585361781982876	0.0	0.7808298639213319	-0.46570373476263416	0.0	0.7691040397195235	-0.528709987042607	0.0	0.7743633368058599	-0.5785527433448305	0.0
106	3.5556962025316454	0.7721535319861772	-0.5716490845804549	0.0	0.764684497436159	-0.5702815785097488	0.0	0.7513882681386093	-0.6721609894710306	0.0	0.7124102468895193	-0.770414872967103	0.0	0.743276575182256	-0.7958406273918033	0.0	0.7301702434981181	-0.7975749921274644	0.0	0.6975036617023292	-0.7838163856965278	0.0	0.7792464291043292	-0.5717482206639631	0.0	0.7731864660594557	-0.6738530942858335	0.0	0.7467322403014267	-0.7664741625634144	0.0	0.7701817498438761	-0.790206525602312	0.0	0.7714113642399433	-0.7870432432860514	0.0	0.7379894901792647	-0.7802358099716123	0.0	0.7801092823946016	-0.4362385741866508	0.0	0.8146398677019834	-0.37978062836037035	0.0	0.8173018012209933	-0.41561931563153426	0.0	0.763153307980528	-0.45062314024631367	0.0	0.7405826446918395	-0.5150342273957469	0.0	0.7326106190187014	-0.5750702473930851	0.0	0.7826211989129968	-0.45643278215823685	0.0	0.7704609827877422	-0.5189990711448332	0.0	0.7754945674517918	-0.5692376699037311	0.0
